<?xml version="1.0" encoding="utf-8"?>
<!-- Generator: Adobe Illustrator 27.2.0, SVG Export Plug-In . SVG Version: 6.00 Build 0)  -->
<svg version="1.1" id="main" xmlns="http://www.w3.org/2000/svg" xmlns:xlink="http://www.w3.org/1999/xlink" x="0px" y="0px"
	 viewBox="0 0 746 400" style="enable-background:new 0 0 746 400;" xml:space="preserve">
<style type="text/css">
	.st0{fill:#FFFFFF;}
	.st1{display:none;}
	.st2{display:inline;fill:none;stroke:#3C3C3B;stroke-miterlimit:10;}
	.st3{fill:#808080;}
</style>
<g>
	<polygon class="st0" points="307.9,200 300,200 300,200 207.9,200 300,107.9 300,100 200,100 192.1,100 100,192.1 100,200 100,300 
		107.9,300 200,207.9 292.1,300 300,300 300,300 400,300 400,292.1 	"/>
	<g>
		<path class="st0" d="M448.6,239.3h5.5c0,7.6,5.5,11.7,14.3,11.7c7.6,0,11.6-2.9,11.6-8.2c0-6.5-6.3-7.3-13.2-8
			c-7.7-0.9-16.1-2.4-16.1-11.6c0-7.6,6.8-12.4,15.7-12.4c9.7,0,17.3,4.6,17.7,13.3h-5.5c-0.3-5.1-4.6-8.3-12.1-8.3
			c-6.4,0-10.3,2.8-10.3,7.4c0,5.4,5.9,6.1,12.4,6.7c8,0.8,16.9,2.2,16.9,12.3c0,8.8-6.5,13.8-17.1,13.8
			C456.4,256,448.6,249.6,448.6,239.3z"/>
		<path class="st0" d="M495.1,248.7v-21.5h-5.3v-4.3h5.3v-8.2h5.2v8.2h7v4.3h-7v21.2c0,1.4,0.8,2.2,2.2,2.2h4.8v4.7h-5.6
			C497.4,255.3,495.1,253,495.1,248.7z"/>
		<path class="st0" d="M512.9,242.4v-19.5h5.2v18.4c0,6.5,2.6,9.9,7.8,9.9c5.4,0,8.4-3.5,8.4-9.9v-18.4h5.2v32.4h-5.2v-2.5h-0.5
			c-2,2.2-5.1,3.2-9.2,3.2C516.7,256,512.9,251.5,512.9,242.4z"/>
		<path class="st0" d="M546,239.1c0-10.2,5.8-16.9,14.8-16.9c4,0,7.5,1.4,10,4h0.5v-14.8h5.2v43.9h-5.2v-3.5h-0.5
			c-2.5,2.6-6.1,4.1-10,4.1C551.9,256,546,249.3,546,239.1z M561.4,251.2c6.3,0,10.5-4.8,10.5-12.1c0-7.4-4-12.1-10.5-12.1
			c-6.3,0-10.2,4.6-10.2,12.1C551.2,246.6,555.1,251.2,561.4,251.2z"/>
		<path class="st0" d="M584.3,222.9h5.2v32.4h-5.2V222.9z M584.4,211.4h5.2v6.5h-5.2V211.4z"/>
		<path class="st0" d="M596.1,239.1c0-10.6,6.7-16.9,15.7-16.9c9.1,0,15.8,6.3,15.8,16.9c0,10.5-6.7,16.9-15.8,16.9
			C602.8,256,596.1,249.6,596.1,239.1z M611.8,251.2c6.3,0,10.6-4.3,10.6-12.1c0-7.8-4.3-12.1-10.6-12.1c-6.1,0-10.5,4.2-10.5,12.1
			C601.3,246.9,605.6,251.2,611.8,251.2z"/>
	</g>
	<g>
		<path class="st0" d="M450,144.7h5.5v22.2h0.3l21.2-22.2h6.3v1.3l-15,15.1l16.1,26.1v1.3h-5.5l-14.2-23.3h-0.5l-8.8,8.8v14.5H450
			V144.7z"/>
		<path class="st0" d="M488,178.7c0-5.8,3.8-9.5,11.8-9.5h11v-2.1c0-4.4-2.7-6.8-8.4-6.8c-5,0-7.9,1.8-8.3,5.5h-5.2
			c0.5-5.8,5-10.2,13.6-10.2c9.4,0,13.4,4.8,13.4,11.6v15c0,1.4,0.8,2.2,2.2,2.2h1.5v4.3h-2.2c-3.2,0-5.4-1.3-6.2-3.8h-0.3
			c-2.2,2.7-5.6,4.5-10.5,4.5C493.3,189.3,488,185.5,488,178.7z M501.2,184.6c6.2,0,9.6-3.2,9.6-9.1v-2h-11c-4.8,0-6.7,2.3-6.7,5.3
			C493.1,182.9,496.7,184.6,501.2,184.6z"/>
		<path class="st0" d="M527.3,182v-21.5H522v-4.3h5.3V148h5.2v8.2h7v4.3h-7v21.2c0,1.4,0.8,2.2,2.2,2.2h4.8v4.7h-5.6
			C529.6,188.6,527.3,186.3,527.3,182z"/>
		<path class="st0" d="M544.2,178.7c0-5.8,3.8-9.5,11.8-9.5h11v-2.1c0-4.4-2.7-6.8-8.4-6.8c-5,0-7.9,1.8-8.3,5.5h-5.2
			c0.5-5.8,4.9-10.2,13.6-10.2c9.4,0,13.4,4.8,13.4,11.6v15c0,1.4,0.8,2.2,2.2,2.2h1.5v4.3h-2.2c-3.2,0-5.4-1.3-6.2-3.8h-0.3
			c-2.2,2.7-5.6,4.5-10.5,4.5C549.5,189.3,544.2,185.5,544.2,178.7z M557.4,184.6c6.2,0,9.6-3.2,9.6-9.1v-2h-11
			c-4.8,0-6.7,2.3-6.7,5.3C549.4,182.9,552.9,184.6,557.4,184.6z"/>
		<path class="st0" d="M582,156.2h5.2v2.5h0.5c2-2.2,5.1-3.2,9.2-3.2c7.9,0,11.7,4.5,11.7,13.6v19.5h-5.2v-18.4
			c0-6.5-2.6-9.9-7.8-9.9c-5.4,0-8.4,3.5-8.4,9.9v18.4H582V156.2z"/>
		<path class="st0" d="M615.2,178.7c0-5.8,3.8-9.5,11.8-9.5h11v-2.1c0-4.4-2.7-6.8-8.4-6.8c-5,0-7.9,1.8-8.3,5.5h-5.2
			c0.5-5.8,4.9-10.2,13.6-10.2c9.4,0,13.4,4.8,13.4,11.6v15c0,1.4,0.8,2.2,2.2,2.2h1.5v4.3h-2.2c-3.2,0-5.4-1.3-6.2-3.8h-0.3
			c-2.2,2.7-5.6,4.5-10.5,4.5C620.5,189.3,615.2,185.5,615.2,178.7z M628.4,184.6c6.2,0,9.6-3.2,9.6-9.1v-2h-11
			c-4.8,0-6.7,2.3-6.7,5.3C620.4,182.9,623.9,184.6,628.4,184.6z"/>
	</g>
</g>
</svg>
