<?xml version="1.0" encoding="UTF-8"?>
<svg id="Layer_1" data-name="Layer 1" xmlns="http://www.w3.org/2000/svg" viewBox="0 0 155.28 182.74">
  <defs>
    <style>
      .cls-1 {
        fill: #fafafb;
      }

      .cls-2 {
        fill: #f7f8f9;
      }
    </style>
  </defs>
  <path class="cls-1" d="M109.97,119.75c-9.18,19.64-18.12,38.97-27.31,58.18-.99,2.08-3.3,4.51-5.29,4.8-1.39.2-3.89-2.68-4.83-4.68-12.11-25.73-23.66-51.74-36.09-77.31-13.08-26.89-.28-50.93,14.91-61.28,17.1-11.65,39.96-10.56,56.22,2.88,15.84,13.1,21.17,35.57,12.84,54.32-3.38,7.6-6.85,15.16-10.44,23.08M76.94,38.28c-23.42,1.5-39.92,20.47-37.27,42.85,2.64,22.29,22.91,36.95,45.68,33.03,17.71-3.04,31.96-20.93,30.91-38.8-1.23-20.91-17.2-36.32-39.33-37.07Z"/>
  <path class="cls-2" d="M48.8,5.44c37.35-14.51,77.99,1.03,96.89,34.48,21.77,38.51,4.96,90.33-35.34,107.85-.11.05-.29-.06-.69-.16,3.41-6.68,5.88-13.35,12.27-18.56,22.36-18.22,29.79-49.7,19.14-76.67-10.72-27.15-38.16-44.63-67.48-42.98-28.49,1.6-54,21.63-61.37,49.26-7.31,27.39-.47,51.37,20.89,70.1,6.24,5.47,9.69,11.75,12.93,18.92C24.98,140.53,2.78,115.37.31,85.34-2.63,49.66,15.68,19.68,48.8,5.44Z"/>
  <g id="_" data-name="{ / }">
    <path class="cls-2" d="M53.61,86.75c0-2.55.36-3.86.36-6.14,0-1.27-1.05-2.59-4.93-2.65v-3.12c3.88-.06,4.93-1.38,4.93-2.65,0-2.24-.36-3.63-.36-6.14,0-3.89,2.08-5.12,6.71-5.12h2.78v2.81h-1.48c-3,0-3.66.52-3.66,2.52,0,1.9.16,3.74.16,5.87,0,2.73-1.03,3.78-3.61,4.21v.14c2.59.43,3.61,1.48,3.61,4.21,0,2.19-.16,3.93-.16,5.87s.66,2.52,3.66,2.52h1.48v2.81h-2.78c-4.63,0-6.71-1.24-6.71-5.12Z"/>
    <path class="cls-2" d="M81.35,60.85h4.43l-11.86,31.32h-4.43l11.86-31.32Z"/>
    <path class="cls-2" d="M92.21,89.07h1.47c2.97,0,3.64-.52,3.64-2.52s-.14-3.68-.14-5.87c0-2.73,1.02-3.78,3.6-4.21v-.14c-2.59-.43-3.6-1.48-3.6-4.21,0-2.13.14-3.97.14-5.87,0-2-.67-2.52-3.64-2.52h-1.47v-2.81h2.77c4.64,0,6.7,1.24,6.7,5.12,0,2.51-.38,3.9-.38,6.14,0,1.27,1.05,2.59,4.96,2.65v3.12c-3.91.06-4.96,1.38-4.96,2.65,0,2.28.38,3.59.38,6.14,0,3.89-2.06,5.12-6.7,5.12h-2.77v-2.81Z"/>
  </g>
</svg>