<svg width="164" height="31" viewBox="0 0 164 31" fill="none" xmlns="http://www.w3.org/2000/svg">
<g clip-path="url(#clip0_1323_5106)">
<path d="M52.219 21.8497C50.5502 23.4427 48.2259 24.2459 45.1977 24.2481C42.1602 24.2459 39.8267 23.4449 38.151 21.8564C36.4776 20.2679 35.6351 18.0619 35.6328 15.1825C35.6328 12.3031 36.4753 10.0926 38.144 8.4996C39.8151 6.90663 42.1371 6.10343 45.1654 6.10119C48.2029 6.10119 50.5364 6.90663 52.2121 8.4996C53.8855 10.0926 54.7303 12.3031 54.7326 15.1825C54.7326 18.0507 53.8901 20.2545 52.219 21.8497ZM55.1134 5.92668C52.6668 3.63342 49.3454 2.49462 45.1977 2.49462C41.0431 2.49462 37.7124 3.63342 35.2589 5.92668C32.8053 8.21546 31.5797 11.3209 31.582 15.1825C31.582 19.0441 32.803 22.1473 35.252 24.4294C37.6986 26.7159 41.02 27.8525 45.1654 27.8525H45.1769C49.3269 27.8525 52.6529 26.7159 55.1042 24.4294C57.5577 22.1451 58.7833 19.0419 58.781 15.1803C58.7833 11.3186 57.5623 8.21323 55.1134 5.92444" fill="white"/>
<path d="M80.0894 23.4091L70.8015 3.121H65.2158V27.2304H65.4512H69.0704L68.865 6.90879L78.169 27.2304H81.9867L91.4569 6.88866L91.2677 27.2304H95.1222V3.121H89.5873L80.0894 23.4091Z" fill="white"/>
<path d="M156.993 21.8498C155.322 23.4428 153 24.246 149.971 24.2482C146.932 24.2482 144.6 23.445 142.925 21.8587C141.251 20.2702 140.409 18.0642 140.407 15.1848C140.407 12.3054 141.249 10.0949 142.918 8.50191C144.589 6.91117 146.911 6.10573 149.939 6.10573C152.977 6.10573 155.31 6.91117 156.986 8.50415C158.659 10.0971 159.504 12.3076 159.506 15.187C159.506 18.0553 158.664 20.2613 156.995 21.8543M159.889 5.93122C157.44 3.6402 154.119 2.5014 149.976 2.5014C145.819 2.5014 142.488 3.6402 140.037 5.93122C137.581 8.22224 136.356 11.3277 136.36 15.1893C136.358 19.0509 137.579 22.1518 140.028 24.4384C142.477 26.7249 145.798 27.8615 149.941 27.8593H149.953C154.105 27.8593 157.431 26.7227 159.88 24.4384C162.334 22.1541 163.559 19.0531 163.557 15.1893C163.557 11.3277 162.338 8.22224 159.889 5.93122Z" fill="white"/>
<path d="M22.5267 18.675C22.1228 20.2367 21.2734 21.503 19.9578 22.4986C18.4136 23.662 16.4956 24.2482 14.1713 24.2505C11.1315 24.2482 8.8003 23.4428 7.1246 21.852C5.4512 20.2591 4.60643 18.0531 4.60412 15.187C4.60412 12.3076 5.44659 10.0971 7.11767 8.50415C8.78645 6.91341 11.1107 6.10798 14.139 6.10574C16.424 6.10574 18.2821 6.63151 19.7431 7.66963C21.1211 8.65182 21.982 9.97855 22.3559 11.6789H26.4344C26.1297 8.97399 24.8787 6.7568 22.6929 5.08552C20.4402 3.3583 17.5896 2.49917 14.1736 2.5014C10.0167 2.5014 6.68836 3.6402 4.23482 5.93123C1.77897 8.21777 0.555664 11.3209 0.555664 15.1848C0.555664 19.0442 1.77666 22.1474 4.22559 24.4317C6.6722 26.7182 9.99591 27.857 14.1413 27.8548H14.1459C17.6243 27.8548 20.5256 26.9554 22.8106 25.1476C24.8926 23.5032 26.1643 21.3285 26.626 18.675H22.5267Z" fill="white"/>
<path d="M121.099 11.0301C121.099 12.6477 121.738 13.641 121.837 13.7865L133.514 2.56179C133.507 2.54613 133.503 2.53271 133.496 2.51928C133.461 2.50586 133.412 2.49915 133.35 2.49915C131.744 2.49915 121.099 6.63596 121.099 11.0278" fill="url(#paint0_linear_1323_5106)"/>
<path d="M114.71 4.21737C114.68 4.19723 114.653 4.17486 114.625 4.15472C114.653 4.1771 114.68 4.19947 114.71 4.2196C115.267 4.44557 115.929 4.57981 116.642 4.57981C117.355 4.57981 118.013 4.44334 118.572 4.21066C119.534 3.81017 120.181 3.13003 120.181 2.37381C120.181 1.17908 118.56 0.170044 116.64 0.170044C114.72 0.170044 113.102 1.15894 113.102 2.37381C113.102 3.14569 113.741 3.8236 114.708 4.2196" fill="url(#paint1_linear_1323_5106)"/>
<path d="M108.33 26.4855C110.036 24.7986 115.042 19.9883 116.644 19.9883C118.246 19.9883 123.254 24.7964 124.96 26.4788C123.271 24.4563 118.345 17.619 116.692 17.4893L116.644 17.4825C115.042 17.4825 110.036 24.4406 108.33 26.4855Z" fill="url(#paint2_linear_1323_5106)"/>
<path d="M114.043 3.12332C114.043 3.54618 114.309 3.92652 114.731 4.21737C115.285 4.44334 115.945 4.57535 116.654 4.57758C117.355 4.57758 118.018 4.43887 118.574 4.20842C118.59 4.20171 118.609 4.19276 118.625 4.18605C119.029 3.89744 119.285 3.52828 119.285 3.12332C119.285 2.23958 118.085 1.49231 116.663 1.49231C115.241 1.49231 114.041 2.22392 114.041 3.12332" fill="#B3B3B3"/>
<mask id="mask0_1323_5106" style="mask-type:luminance" maskUnits="userSpaceOnUse" x="114" y="1" width="6" height="4">
<path d="M114.043 3.12328C114.043 3.54613 114.309 3.92648 114.731 4.21733C115.285 4.4433 115.945 4.5753 116.654 4.57754C117.355 4.57754 118.018 4.43883 118.574 4.20838C118.59 4.20167 118.609 4.19272 118.625 4.18601C119.029 3.89739 119.285 3.52824 119.285 3.12328C119.285 2.23954 118.085 1.49227 116.663 1.49227C115.241 1.49227 114.041 2.22387 114.041 3.12328" fill="white"/>
</mask>
<g mask="url(#mask0_1323_5106)">
<path d="M119.473 1.30661H113.812V4.83488H119.473V1.30661Z" fill="url(#paint3_linear_1323_5106)"/>
</g>
<path d="M116.641 13.5113H116.632H116.609H116.583H116.574H116.567H116.56H116.555C116.555 13.5113 116.555 13.5113 116.553 13.5113H116.546C116.546 13.5113 116.546 13.5113 116.544 13.5113H116.539H116.535H116.532C116.532 13.5113 116.532 13.5113 116.53 13.5113H116.521C116.521 13.5113 116.521 13.5113 116.519 13.5113C116.519 13.5113 116.519 13.5113 116.516 13.5113H116.512H116.509H116.505C116.505 13.5113 116.505 13.5113 116.502 13.5113C116.502 13.5113 116.5 13.5113 116.498 13.5113C116.498 13.5113 116.495 13.5113 116.493 13.5113C113.901 13.8357 106.506 20.7334 101.968 25.2685C101.703 25.5347 101.446 25.792 101.202 26.0381C100.678 26.5683 100.205 27.0538 99.8008 27.4745C100.05 28.0293 100.876 29.5664 102.483 29.8371C102.483 29.8371 102.504 29.8393 102.513 29.8415C102.517 29.8415 102.52 29.8415 102.524 29.8415C102.527 29.8415 102.531 29.8415 102.534 29.8415C102.541 29.8415 102.547 29.8438 102.554 29.8438C102.554 29.8438 102.561 29.8438 102.564 29.8438C102.564 29.8438 102.571 29.8438 102.573 29.8438C102.573 29.8438 102.587 29.846 102.594 29.846C102.594 29.846 102.601 29.846 102.603 29.846C102.603 29.846 102.61 29.846 102.612 29.846C102.612 29.846 102.626 29.846 102.633 29.8483C102.633 29.8483 102.64 29.8483 102.642 29.8483C102.642 29.8483 102.649 29.8483 102.651 29.8483C102.651 29.8483 102.665 29.8483 102.672 29.8483C102.672 29.8483 102.679 29.8483 102.681 29.8483C102.681 29.8483 102.688 29.8483 102.691 29.8483C102.691 29.8483 102.697 29.8483 102.7 29.8483C102.702 29.8483 102.707 29.8483 102.709 29.8483H102.718C102.721 29.8483 102.725 29.8483 102.727 29.8483C102.727 29.8483 102.734 29.8483 102.737 29.8483C102.741 29.8483 102.744 29.8483 102.748 29.8483C102.751 29.8483 102.755 29.8483 102.757 29.8483C102.757 29.8483 102.764 29.8483 102.767 29.8483C102.767 29.8483 102.774 29.8483 102.776 29.8483C102.776 29.8483 102.783 29.8483 102.785 29.8483C102.785 29.8483 102.79 29.8483 102.794 29.8483H102.808C102.808 29.8483 102.815 29.8483 102.817 29.8483H102.827H102.838C102.838 29.8483 102.845 29.8483 102.848 29.8483H102.859C102.859 29.8483 102.866 29.8483 102.868 29.8483H102.882C102.882 29.8483 102.889 29.8483 102.891 29.8483H102.924H102.944C104.369 29.8483 106.049 28.9198 107.944 27.0941C108.038 26.9979 108.168 26.8525 108.322 26.6668C108.165 26.8212 108.038 26.9487 107.944 27.0449C109.089 25.8971 114.889 17.6123 116.636 17.6123C118.384 17.6123 124.188 25.8949 125.331 27.0382C125.236 26.942 125.107 26.8144 124.952 26.6623C125.107 26.848 125.236 26.9934 125.331 27.0896C127.221 28.9198 128.902 29.8505 130.328 29.8505H130.349C130.349 29.8505 130.353 29.8505 130.356 29.8505H130.39H130.393H130.416C130.416 29.8505 130.423 29.8505 130.425 29.8505C131.189 29.8259 131.796 29.5238 132.267 29.1323C132.269 29.1323 132.272 29.1278 132.274 29.1256C132.274 29.1256 132.276 29.1256 132.276 29.1234C132.276 29.1234 132.276 29.1234 132.278 29.1211C132.952 28.5551 133.342 27.8078 133.502 27.4476C133.287 27.2239 133.052 26.9822 132.802 26.725C132.341 26.2506 131.821 25.7271 131.261 25.1678C129.866 23.7762 128.209 22.1675 126.506 20.5992C126.134 20.2546 125.758 19.9123 125.384 19.5745C121.797 16.346 118.227 13.5337 116.678 13.4777L116.629 13.4733H116.625L116.641 13.5113Z" fill="url(#paint4_linear_1323_5106)"/>
<path d="M125.342 2.92867L121.771 6.3831C120.568 7.5219 119.959 8.73229 119.959 9.97848C119.959 10.0299 119.959 10.0792 119.961 10.1306C120.031 11.8735 121.265 13.2674 121.817 13.8043L121.835 13.7864C121.736 13.641 121.097 12.6476 121.097 11.03C121.097 6.63816 131.742 2.50134 133.348 2.50134C133.411 2.50134 133.459 2.50805 133.494 2.52147C133.194 1.85699 132.238 0.170044 130.334 0.170044C128.908 0.170044 127.23 1.09853 125.339 2.92867" fill="url(#paint5_linear_1323_5106)"/>
<path d="M99.9535 2.51928C99.9881 2.50585 100.037 2.49914 100.099 2.49914C101.705 2.49914 112.35 6.63596 112.35 11.0278C112.35 12.6477 111.711 13.641 111.612 13.7842L111.63 13.8021C112.182 13.2629 113.419 11.8691 113.486 10.1284C113.486 10.077 113.488 10.0255 113.488 9.97629C113.488 8.72786 112.879 7.5197 111.676 6.3809L108.106 2.92647C106.215 1.09634 104.537 0.167847 103.111 0.167847C101.207 0.167847 100.254 1.85479 99.9512 2.51928" fill="url(#paint6_linear_1323_5106)"/>
<path d="M99.953 2.51936C99.9461 2.53279 99.9415 2.54621 99.9346 2.55964L111.611 13.7865C111.711 13.6434 112.35 12.65 112.35 11.0302C112.35 6.63828 101.705 2.50146 100.098 2.50146C100.036 2.50146 99.9877 2.50818 99.953 2.5216" fill="url(#paint7_linear_1323_5106)"/>
</g>
<defs>
<linearGradient id="paint0_linear_1323_5106" x1="132.582" y1="2.90859" x2="122.94" y2="12.0454" gradientUnits="userSpaceOnUse">
<stop offset="0.046875" stop-color="#EAEAEA"/>
<stop offset="0.854167" stop-color="#AAAAAA"/>
</linearGradient>
<linearGradient id="paint1_linear_1323_5106" x1="116.641" y1="0.170044" x2="116.641" y2="4.57981" gradientUnits="userSpaceOnUse">
<stop stop-color="#EAEAEA"/>
<stop offset="0.464354" stop-color="#C4C4C4"/>
<stop offset="1" stop-color="#B5B5B5"/>
</linearGradient>
<linearGradient id="paint2_linear_1323_5106" x1="116.645" y1="17.4825" x2="116.645" y2="26.4855" gradientUnits="userSpaceOnUse">
<stop stop-color="#AAAAAA"/>
<stop offset="1" stop-color="#EAEAEA"/>
</linearGradient>
<linearGradient id="paint3_linear_1323_5106" x1="116.642" y1="1.30661" x2="116.642" y2="4.83488" gradientUnits="userSpaceOnUse">
<stop stop-color="#AAAAAA"/>
<stop offset="1" stop-color="#EAEAEA"/>
</linearGradient>
<linearGradient id="paint4_linear_1323_5106" x1="116.651" y1="13.4733" x2="116.651" y2="29.8505" gradientUnits="userSpaceOnUse">
<stop stop-color="#EAEAEA"/>
<stop offset="1" stop-color="#AAAAAA"/>
</linearGradient>
<linearGradient id="paint5_linear_1323_5106" x1="132.029" y1="0.722486" x2="121.3" y2="11.1837" gradientUnits="userSpaceOnUse">
<stop stop-color="#AAAAAA"/>
<stop offset="1" stop-color="#EAEAEA"/>
</linearGradient>
<linearGradient id="paint6_linear_1323_5106" x1="102.46" y1="1.67804" x2="112.267" y2="12.9448" gradientUnits="userSpaceOnUse">
<stop stop-color="#B3B3B3"/>
<stop offset="1" stop-color="#EAEAEA"/>
</linearGradient>
<linearGradient id="paint7_linear_1323_5106" x1="103.152" y1="4.36294" x2="111.318" y2="12.6717" gradientUnits="userSpaceOnUse">
<stop stop-color="#EAEAEA"/>
<stop offset="0.869792" stop-color="#AAAAAA"/>
</linearGradient>
<clipPath id="clip0_1323_5106">
<rect width="163" height="30.0562" fill="white" transform="translate(0.555664)"/>
</clipPath>
</defs>
</svg>
